<svg width="229" height="100" viewBox="0 0 229 100" fill="none" xmlns="http://www.w3.org/2000/svg">
<path d="M117.616 70H121.828V52H105.556V70H109.768V55.708H117.616V70ZM138.595 70H142.771V52H129.019L128.875 55.924C128.623 65.32 127.363 65.824 125.815 65.824C125.527 65.824 125.203 65.788 124.879 65.68V70.036C125.239 70.144 125.959 70.216 126.643 70.216C129.451 70.216 132.187 69.208 132.655 57.976L132.763 55.708H138.595V70ZM148.351 58.516C149.575 56.608 151.483 55.312 154.795 55.312C157.207 55.312 158.431 56.104 158.431 58.66V59.452H154.363C149.935 59.452 146.947 60.604 146.947 64.708C146.947 68.236 149.107 70.288 152.743 70.288C155.623 70.288 157.819 68.848 158.683 66.76V70H162.643V58.12C162.643 53.44 160.051 51.64 154.795 51.64C151.699 51.64 149.539 52.36 148.351 53.26V58.516ZM154.075 66.508C152.203 66.508 151.195 65.644 151.195 64.276C151.195 62.656 152.383 62.188 154.867 62.188H158.431V63.664C158.251 64.888 156.919 66.508 154.075 66.508ZM179.849 70H184.061V52H179.849V59.02H171.713V52H167.501V70H171.713V62.728H179.849V70ZM204.026 68.2V63.88C203.054 65.464 200.858 66.724 197.546 66.724C194.27 66.724 192.434 65.212 192.11 62.224H205.466V60.496C205.466 54.844 202.334 51.64 197.114 51.604C191.678 51.604 187.934 54.952 187.934 60.928C187.934 67.12 191.462 70.396 197.402 70.36C200.678 70.396 203.162 69.208 204.026 68.2ZM197.006 55.276C199.562 55.276 201.146 56.788 201.254 59.236H192.182C192.614 56.644 194.306 55.276 197.006 55.276ZM209.337 76.948H213.549V67.264C214.449 68.956 216.429 70.396 219.309 70.396C224.241 70.396 227.445 67.696 227.445 60.604C227.445 54.304 224.241 51.64 219.669 51.64C215.853 51.64 213.945 53.728 213.297 55.744V52H209.337V76.948ZM213.549 60.244C213.621 57.22 215.133 55.384 218.445 55.384C221.325 55.384 223.233 56.824 223.233 60.784C223.233 65.032 221.757 66.688 218.373 66.688C215.421 66.688 213.549 64.852 213.549 61.612V60.244Z" fill="#424242"/>
<g filter="url(#filter0_d)">
<path fill-rule="evenodd" clip-rule="evenodd" d="M57 17.5C51.0326 17.5 45.3097 19.8705 41.0901 24.0901C37.584 27.5962 35.3545 32.1402 34.7008 37H23C19.6863 37 17 39.6863 17 43V77C17 80.3137 19.6863 83 23 83H91C94.3137 83 97 80.3137 97 77V43C97 39.6863 94.3137 37 91 37H79.2992C78.6455 32.1402 76.416 27.5962 72.9099 24.0901C68.6903 19.8705 62.9674 17.5 57 17.5ZM74.241 37C73.6272 33.4724 71.9404 30.1916 69.3744 27.6256C66.0925 24.3437 61.6413 22.5 57 22.5C52.3587 22.5 47.9075 24.3437 44.6256 27.6256C42.0596 30.1916 40.3728 33.4724 39.759 37H74.241Z" fill="url(#paint0_linear)"/>
</g>
<path d="M34.4354 70H38.6114V55.708H44.4434V52H28.6754V55.708H34.4354V70ZM54.5048 70.072C53.8208 72.52 52.8488 73.384 51.5528 73.384C50.7608 73.384 49.9328 73.024 49.3928 72.484V76.408C49.9328 76.876 51.1568 77.2 52.2728 77.2C54.6488 77.2 56.2688 76.228 57.8528 71.908L65.0528 52H60.5888L56.5568 64.348L51.6248 52H46.9088L54.5048 70.072ZM67.808 76.948H72.02V67.264C72.92 68.956 74.9 70.396 77.78 70.396C82.712 70.396 85.916 67.696 85.916 60.604C85.916 54.304 82.712 51.64 78.14 51.64C74.324 51.64 72.416 53.728 71.768 55.744V52H67.808V76.948ZM72.02 60.244C72.092 57.22 73.604 55.384 76.916 55.384C79.796 55.384 81.704 56.824 81.704 60.784C81.704 65.032 80.228 66.688 76.844 66.688C73.892 66.688 72.02 64.852 72.02 61.612V60.244Z" fill="white"/>
<defs>
<filter id="filter0_d" x="0" y="0.5" width="114" height="99.5" filterUnits="userSpaceOnUse" color-interpolation-filters="sRGB">
<feFlood flood-opacity="0" result="BackgroundImageFix"/>
<feColorMatrix in="SourceAlpha" type="matrix" values="0 0 0 0 0 0 0 0 0 0 0 0 0 0 0 0 0 0 127 0"/>
<feMorphology radius="2" operator="dilate" in="SourceAlpha" result="effect1_dropShadow"/>
<feOffset/>
<feGaussianBlur stdDeviation="7.5"/>
<feColorMatrix type="matrix" values="0 0 0 0 0.866667 0 0 0 0 0.866667 0 0 0 0 0.866667 0 0 0 0.25 0"/>
<feBlend mode="normal" in2="BackgroundImageFix" result="effect1_dropShadow"/>
<feBlend mode="normal" in="SourceGraphic" in2="effect1_dropShadow" result="shape"/>
</filter>
<linearGradient id="paint0_linear" x1="17" y1="83" x2="64.6877" y2="-0.872035" gradientUnits="userSpaceOnUse">
<stop stop-color="#B48FF5"/>
<stop offset="0.505208" stop-color="#8381FF"/>
<stop offset="1" stop-color="#579AFF"/>
</linearGradient>
</defs>
</svg>
